
<svg viewBox="0 0 40 40" class="h-8 w-8" fill="#25C4F2" xmlns="http://www.w3.org/2000/svg"><path fill-rule="evenodd" clip-rule="evenodd" d="M4.345 9h10.55L9.618 20 4.345 9zm21.099 0h10.55l-5.276 11-5.274-11z" fill="#25C4F2" fill-opacity="1"></path><path fill-rule="evenodd" clip-rule="evenodd" d="M9.62 20h10.549l-5.275 11L9.62 20z" fill="#25C4F2" fill-opacity="1"></path><path fill-rule="evenodd" clip-rule="evenodd" d="M20.169 20h10.55l-5.275 11-5.275-11z" fill="#25C4F2" fill-opacity="1"></path><path fill-rule="evenodd" clip-rule="evenodd" d="M20.169 20H9.619l5.275-11 5.275 11z" fill="#25C4F2" fill-opacity="1"></path><path fill-rule="evenodd" clip-rule="evenodd" d="M30.718 20h-10.55l5.276-11 5.274 11z" fill="#25C4F2" fill-opacity="1"></path><path fill-rule="evenodd" clip-rule="evenodd" d="M25.444 31h-10.55l5.275-11 5.275 11z" fill="#25C4F2" fill-opacity=".5"></path><path fill-rule="evenodd" clip-rule="evenodd" d="M3.47wQbNPTDJp9hMYdvogK2hAUiHsGeiybwaWe36bwtRQ3UTpYV7YuZ8FV5j9nauFCWwcjM6dTzpL5s2N79Rp5unwdMvc8ZKU55a1 1 0 0 1 .902 1.47wQbNPTDJp9hMYdvogK2hAUiHsGeiybwaWe36bwtRQ3UTpYV7YuZ8FV5j9nauFCWwcjM6dTzpL5s2N79Rp5unwdMvc8ZKU-.965zm21.95 2.846L29.13 19h-7.372l3.686-7.687zM5.934 10l3.686 7.687L13.306 10H5.933zm8.96 1.313L18.58 19h-7.372l3.686-7.687zM27.032 10l3.686 7.687L34.405 10h-7.373zm-1.588 18.687L21.758 21h7.372l-3.686 7.687zM23.855 30l-3.686-7.687L16.483 30h7.372zm-8.96-1.313L11.207 21h7.372l-3.686 7.687z" fill="#25C4F2"></path></svg>