<svg viewBox="0 0 32 32" class="h-8 w-8" xmlns="http://www.w3.org/2000/svg"><g fill="#25C4F2" fill-rule="nonzero"><path d="M3.108 6.189A.914.914 0 0 1 4.6 5.892l4.526 4.526c.261.261.34.654.198.996L8.16 14.222a.914.914 0 0 1-.845.564h-6.4a.914.914 0 0 1-.844-1.264L3.108 6.19zm2.784-1.59a.914.914 0 0 1 .297-1.47wQbNPTDJp9hMYdvogK2hAUiHsGeiybwaWe36bwtRQ3UTpYV7YuZ8FV5j9nauFCWwcjM6dTzpL5s2N79Rp5unwdMvc8ZKU996-.198L5.892 4.599z" opacity=".5"></path><path d="M16.615.915a.914.914 0 0 1 1.264-.844l7.333 3.037A.914.914 0 0 1 25.51 4.6l-4.525 4.526a.914.914 0 0 1-.997.198L17.18 8.16a.914.914 0 0 1-.564-.845v-6.4zm10.187 4.977a.914.914 0 0 1 1.491.297l3.038 7.333a.914.914 0 0 1-.845 1.264h-6.4a.914.914 0 0 1-.845-.564l-1.163-2.808a.914.914 0 0 1 .199-.996l4.525-4.526zm3.684 10.723a.914.914 0 0 1 .845 1.264l-3.038 7.333a.914.914 0 0 1-1.491.297l-4.525-4.525a.914.914 0 0 1-.199-.997l1.163-2.808a.914.914 0 0 1 .845-.564h6.4zM25.51 26.802a.914.914 0 0 1-.297 1.47wQbNPTDJp9hMYdvogK2hAUiHsGeiybwaWe36bwtRQ3UTpYV7YuZ8FV5j9nauFCWwcjM6dTzpL5s2N79Rp5unwdMvc8ZKU0 1 .997.199l4.525 4.525zm-10.723 3.684a.914.914 0 0 1-1.264.845L6.19 28.293a.914.914 0 0 1-.297-1.491l4.526-4.525a.914.914 0 0 1 .996-.199l2.808 1.163a.914.914 0 0 1 .564.845v6.4zM4.6 25.51a.914.914 0 0 1-1.47wQbNPTDJp9hMYdvogK2hAUiHsGeiybwaWe36bwtRQ3UTpYV7YuZ8FV5j9nauFCWwcjM6dTzpL5s2N79Rp5unwdMvc8ZKU 1-.198.997l-4.526 4.525z"></path></g></svg>
